HIERARCHY
ROOT hip
{
	OFFSET	0.00  0.00  0.00 
	CHANNELS 6 Xposition Yposition Zposition Xrotation Zrotation Yrotation
	JOINT abdomen
	{
		OFFSET	0.000000 0.000000 0.000000
		CHANNELS 3 Xrotation Zrotation Yrotation
		JOINT chest
		{
			OFFSET	0.000000 5.018152 -1.882228
			CHANNELS 3 Xrotation Zrotation Yrotation
			JOINT neckDummy
			{
				OFFSET	0.000000 8.316447 0.784897
				CHANNELS 3 Xrotation Yrotation Zrotation
				JOINT neck
				{
					OFFSET	0.000000 2.280413 -0.392801
					CHANNELS 3 Xrotation Zrotation Yrotation
					JOINT head
					{
						OFFSET	0.000000 3.496879 0.529469
						CHANNELS 3 Xrotation Zrotation Yrotation
						JOINT figureHair
						{
							OFFSET	0.000000 4.699570 0.720622
							CHANNELS 3 Zrotation Yrotation Xrotation
							End Site
							{
								OFFSET 0.000000 -6.419331 0.000000
							}
						}
					}
				}
			}
			JOINT lCollar
			{
				OFFSET	0.599237 8.316447 0.784897
				CHANNELS 3 Yrotation Zrotation Xrotation
				JOINT lShldr
				{
					OFFSET	6.421198 0.010146 -0.332128
					CHANNELS 3 Zrotation Yrotation Xrotation
					JOINT lForeArm
					{
						OFFSET	10.552783 0.025574 0.125508
						CHANNELS 3 Yrotation Zrotation Xrotation
						JOINT lHand
						{
							OFFSET	11.035963 0.319619 0.041520
							CHANNELS 3 Zrotation Yrotation Xrotation
							End Site
							{
								OFFSET 10.353753 0.000000 0.000000
							}
						}
					}
				}
			}
			JOINT rCollar
			{
				OFFSET	-0.599237 8.316447 0.784897
				CHANNELS 3 Yrotation Zrotation Xrotation
				JOINT rShldr
				{
					OFFSET	-6.421198 0.010146 -0.332128
					CHANNELS 3 Zrotation Yrotation Xrotation
					JOINT rForeArm
					{
						OFFSET	-10.552783 0.025574 0.125508
						CHANNELS 3 Yrotation Zrotation Xrotation
						JOINT rHand
						{
							OFFSET	-11.035963 0.319619 0.041520
							CHANNELS 3 Zrotation Yrotation Xrotation
							End Site
							{
								OFFSET -10.353753 0.000000 0.000000
							}
						}
					}
				}
			}
		}
	}
	JOINT lThigh
	{
		OFFSET	4.500466 -6.400484 -1.832696
		CHANNELS 3 Xrotation Zrotation Yrotation
		JOINT lShin
		{
			OFFSET	-1.359117 -18.918689 1.179887
			CHANNELS 3 Xrotation Zrotation Yrotation
			JOINT lFoot
			{
				OFFSET	-0.652380 -17.215186 -0.312137
				CHANNELS 3 Xrotation Yrotation Zrotation
				End Site
				{
					OFFSET 0.000000 0.000000 10.353752
				}
			}
		}
	}
	JOINT rThigh
	{
		OFFSET	-4.500466 -6.400484 -1.832696
		CHANNELS 3 Xrotation Zrotation Yrotation
		JOINT rShin
		{
			OFFSET	1.359117 -18.918689 1.179887
			CHANNELS 3 Xrotation Zrotation Yrotation
			JOINT rFoot
			{
				OFFSET	0.652380 -17.215186 -0.312137
				CHANNELS 3 Xrotation Yrotation Zrotation
				End Site
				{
					OFFSET 0.000000 0.000000 10.353752
				}
			}
		}
	}
}
MOTION
Frames:     9
Frame Time: 0.050000
-0.026426 41.763741 0.760826 0.000000 0.000000 0.000000 1.010450 -0.080344 -0.069224 0.036978 -0.103940 0.001814 0.000000 0.000000 0.000000 0.000000 0.000000 0.000000 0.000000 0.000000 0.000000 0.000000 0.000000 0.000000 2.021920 -5.690310 -0.063351 -70.100700 9.978770 15.991600 -22.515600 -9.303740 0.147736 5.969490 -0.173112 0.175734 -1.604920 5.466500 -0.231754 48.939426 44.173325 -4.251373 102.691010 10.553751 -98.848564 -25.965021 22.040258 0.046970 -8.715070 3.942645 0.258523 19.872849 -3.340276 -1.396740 -11.436920 1.049947 -0.656601 -8.715341 -4.440773 0.081098 19.830528 3.319901 0.991840 -11.523935 -1.655336 0.780224 
-0.026426 41.763741 0.760826 0.000000 0.000000 0.000000 -1.711760 -0.080344 -0.069224 0.036978 -0.103940 0.001814 0.000000 0.000000 0.000000 0.000000 0.000000 0.000000 0.000000 0.000000 0.000000 0.000000 0.000000 0.000000 2.021920 -5.690310 -0.063351 -70.100700 9.978770 15.991600 -22.515600 -9.303740 0.147736 5.969490 -0.173112 0.175734 -1.604920 5.466500 -0.231754 54.439194 40.191662 -4.255878 113.885010 15.055901 -99.096725 -19.466671 22.287025 0.036762 -8.717419 3.963237 0.248705 19.891102 -3.349922 -1.399572 -11.455326 1.063233 -0.674607 -8.715341 -4.440773 0.081098 19.847286 3.338852 0.996108 -11.533206 -1.659544 0.760117 
-0.026426 41.763741 0.760826 0.000000 0.000000 0.000000 -4.736438 -0.080344 -0.069223 0.036978 -0.103940 0.001814 0.000000 0.000000 0.000000 0.000000 0.000000 0.000000 0.000000 0.000000 0.000000 0.000000 0.000000 0.000000 2.021920 -5.690310 -0.063351 -70.100700 9.978770 15.991600 -22.515600 -9.303740 0.147736 5.969490 -0.173112 0.175734 -1.604920 5.466500 -0.231754 60.550045 35.767593 -4.260884 126.322792 20.058289 -99.372459 -12.246282 22.561211 0.025420 -8.713737 3.971339 0.248205 19.900999 -3.349960 -1.400251 -11.464428 1.070923 -0.683684 -8.715341 -4.440773 0.081098 19.855640 3.348444 0.998262 -11.543427 -1.657058 0.769998 
-0.026426 41.763741 0.760826 0.000000 0.000000 0.000000 -7.567777 -0.080344 -0.069223 0.036978 -0.103940 0.001814 0.000000 0.000000 0.000000 0.000000 0.000000 0.000000 0.000000 0.000000 0.000000 0.000000 0.000000 0.000000 2.021920 -5.690310 -0.063351 -70.100700 9.978770 15.991600 -22.515600 -9.303740 0.147736 5.969490 -0.173112 0.175734 -1.604920 5.466500 -0.231754 66.270294 31.626314 -4.265570 137.965546 24.740925 -99.630569 -5.487423 22.817871 0.014804 -8.716043 3.991913 0.238382 19.919249 -3.359600 -1.403087 -11.473013 1.084134 -0.692020 -8.715341 -4.440773 0.081098 19.873932 3.357835 1.001061 -11.555097 -1.644265 0.771180 
-0.026426 41.763741 0.760826 0.000000 0.000000 0.000000 -9.878390 -0.080344 -0.069224 0.036978 -0.103940 0.001814 0.000000 0.000000 0.000000 0.000000 0.000000 0.000000 0.000000 0.000000 0.000000 0.000000 0.000000 0.000000 2.021920 -5.690310 -0.063351 -70.100700 9.978770 15.991600 -22.515600 -9.303740 0.147736 5.969490 -0.173112 0.175734 -1.604920 5.466500 -0.231754 70.938499 28.246677 -4.269394 147.467010 28.562351 -99.841209 0.028382 23.027325 0.006139 -8.711649 3.999381 0.247601 19.930048 -3.356124 -1.393494 -11.483689 1.074786 -0.712407 -8.715341 -4.440773 0.081098 19.891563 3.369164 1.013310 -11.564269 -1.649191 0.770529 
-0.026426 41.763741 0.760826 0.333333 0.000000 0.000000 -11.545046 -0.080344 -0.069224 0.036978 -0.103940 0.001814 0.000000 0.000000 0.000000 0.000000 0.000000 0.000000 0.000000 0.000000 0.000000 0.000000 0.000000 0.000000 2.021920 -5.690310 -0.063351 -70.100700 9.978770 15.991600 -22.515600 -9.303740 0.147736 5.969490 -0.173112 0.175734 -1.604920 5.466500 -0.231754 70.939873 35.458656 -4.264333 140.304535 29.392216 -99.839973 5.207456 23.249067 0.001588 -9.041712 4.012949 0.211175 19.895262 -3.397838 -1.349288 -11.484337 1.067752 -0.703352 -9.041264 -4.442334 0.070013 19.870096 3.375213 1.032356 -11.543056 -1.659667 0.759962 
-0.026426 41.763741 0.760826 0.666667 0.000000 0.000000 -13.211700 -0.080344 -0.069224 0.036978 -0.103940 0.001814 0.000000 0.000000 0.000000 0.000000 0.000000 0.000000 0.000000 0.000000 0.000000 0.000000 0.000000 0.000000 2.021920 -5.690310 -0.063351 -70.100700 9.978770 15.991600 -22.515600 -9.303740 0.147736 5.969490 -0.173112 0.175734 -1.604920 5.466500 -0.231754 70.941246 42.670639 -4.259273 133.142059 30.222080 -99.838737 10.386531 23.470810 -0.002963 -9.364332 4.013050 0.183943 19.870213 -3.437901 -1.314633 -11.485887 1.050703 -0.685368 -9.357987 -4.440048 0.079440 19.840189 3.378468 1.021105 -11.513213 -1.661354 0.760495 
-0.030514 41.732502 0.767951 0.725109 0.000000 0.000000 -13.366760 -0.093572 -0.108113 -0.391816 -0.122215 -0.041518 0.000000 0.000000 0.000000 2.188540 0.000000 0.000000 -0.340300 0.000000 0.000000 0.000000 0.000000 0.000000 2.021920 -5.690310 -0.063351 -70.100700 9.978770 15.991600 -22.515600 -9.303740 0.147736 5.969490 -0.173112 0.175734 -1.616042 5.404444 -0.259622 71.015694 43.952049 -3.955353 132.589951 30.465754 -99.736908 8.393129 23.518135 -0.127303 -9.591129 4.029495 0.181643 20.136105 -3.447805 -1.334546 -11.565578 1.036826 -0.676287 -9.582792 -4.440284 0.062166 20.105301 3.388478 1.060360 -11.620564 -1.669760 0.738537 
-0.034602 41.701263 0.775075 0.783550 0.000000 0.000000 -13.521820 -0.106800 -0.147003 -0.820609 -0.140489 -0.084849 0.000000 0.000000 0.000000 4.377080 0.000000 0.000000 -0.680600 0.000000 0.000000 0.000000 0.000000 0.000000 2.021920 -5.690310 -0.063351 -70.100700 9.978770 15.991600 -22.515600 -9.303740 0.147736 5.969490 -0.173112 0.175734 -1.627164 5.342388 -0.287489 71.090134 45.233459 -3.651433 132.037842 30.709427 -99.635086 6.399728 23.565460 -0.251643 -9.819451 4.040896 0.180239 20.392244 -3.456426 -1.354220 -11.653821 1.036865 -0.675484 -9.822740 -4.452353 0.044259 20.370571 3.395021 1.108849 -11.718302 -1.676346 0.736428 
